<svg xmlns="http://www.w3.org/2000/svg" width="317" height="230" viewBox="0 0 317 230">
    <defs>
        <linearGradient id="a" x1="3.779%" x2="115.116%" y1="146.182%" y2="-86.938%">
            <stop offset="36%" stop-color="#00272E"/>
            <stop offset="75%" stop-color="#3F80A1" stop-opacity=".25"/>
            <stop offset="100%" stop-color="#69B9EB" stop-opacity="0"/>
        </linearGradient>
        <linearGradient id="b" x1="60.712%" x2="33.176%" y1="21.321%" y2="98.026%">
            <stop offset="0%" stop-opacity="0"/>
            <stop offset="91%" stop-opacity=".8"/>
            <stop offset="100%"/>
        </linearGradient>
        <linearGradient id="c" x1="55.251%" x2="29.015%" y1="48.983%" y2="54.064%">
            <stop offset="0%" stop-opacity="0"/>
            <stop offset="91%" stop-opacity=".8"/>
            <stop offset="100%"/>
        </linearGradient>
        <linearGradient id="d" x1="57.641%" x2="31.405%" y1="48.52%" y2="53.602%">
            <stop offset="0%" stop-opacity="0"/>
            <stop offset="91%" stop-opacity=".8"/>
            <stop offset="100%"/>
        </linearGradient>
        <linearGradient id="e" x1="61.862%" x2="29.364%" y1="47.029%" y2="54.825%">
            <stop offset="0%" stop-opacity="0"/>
            <stop offset="91%" stop-opacity=".8"/>
            <stop offset="100%"/>
        </linearGradient>
        <linearGradient id="f" x1=".554%" x2="100.559%" y1="619.33%" y2="619.33%">
            <stop offset="0%" stop-color="#ECC4D7"/>
            <stop offset="42%" stop-color="#EFD4D1"/>
            <stop offset="100%" stop-color="#F2EAC9"/>
        </linearGradient>
        <linearGradient id="g" x1="67.401%" x2="21.082%" y1="2061.185%" y2="2265.949%">
            <stop offset="0%" stop-color="#ECC4D7"/>
            <stop offset="42%" stop-color="#EFD4D1"/>
            <stop offset="100%" stop-color="#F2EAC9"/>
        </linearGradient>
        <linearGradient id="h" x1="58.381%" x2="40.726%" y1="71.893%" y2="34.863%">
            <stop offset="0%" stop-color="#ECC4D7"/>
            <stop offset="42%" stop-color="#EFD4D1"/>
            <stop offset="100%" stop-color="#F2EAC9"/>
        </linearGradient>
        <linearGradient id="i" x1="-25.592%" x2="213.647%" y1="118.867%" y2="-77.304%">
            <stop offset="0%" stop-color="#ECC4D7"/>
            <stop offset="42%" stop-color="#EFD4D1"/>
            <stop offset="100%" stop-color="#F2EAC9"/>
        </linearGradient>
        <linearGradient id="j" x1="42.645%" x2="56.115%" y1="40.272%" y2="59.614%">
            <stop offset="0%" stop-color="#68E1FD"/>
            <stop offset="1%" stop-color="#67DDF9"/>
            <stop offset="12%" stop-color="#5CB3CE"/>
            <stop offset="24%" stop-color="#538EA9"/>
            <stop offset="37%" stop-color="#4C718B"/>
            <stop offset="50%" stop-color="#465A73"/>
            <stop offset="63%" stop-color="#424A63"/>
            <stop offset="79%" stop-color="#404059"/>
            <stop offset="99%" stop-color="#3F3D56"/>
        </linearGradient>
    </defs>
    <g fill="none" fill-rule="nonzero">
        <path fill="#00AB6C" d="M50.46 48.423c-9.354 1.983-19.077 4.135-26.587 10.057-6.34 4.996-16.221 14.22-19.215 21.714-12.682 31.655 1.656 70.174 29.488 89.874 13.09 9.266 29.403 13.75 41.167 24.657 7.44 6.899 12.651 16.03 20.568 22.371 11.568 9.258 27.186 11.306 41.967 12.298 10.268.695 20.937.995 30.464-2.91 6.887-2.82 12.72-7.659 18.447-12.428l37.935-31.678c6.095-5.085 11.794-13.182 19.73-13.128 71.428.51 76.243-83.55-33.38-120.781-9.662-3.282-16.288-12.405-25.365-17.083-18.75-9.665-40.33-6.533-59.241.154-24.012 8.513-51.06 11.583-75.978 16.883z" opacity=".18"/>
        <path fill="#000405" d="M299.403 184.03c2.99.05 6.841.796 7.302 3.747.25 1.537-.63 3.032-1.583 4.274-5.96 7.79-15.837 11.729-25.584 12.786-9.746 1.056-19.569-.423-29.3-1.622a513.228 513.228 0 0 0-42.35-3.459c-10.077-.407-20.676-.661-29.354-5.795-1.61-.95-3.193-2.137-3.966-3.843-1.537-3.394.892-7.525 4.228-9.174 3.336-1.649 7.256-1.487 10.976-1.287 36.532 1.967 73.037 4.373 109.631 4.373z" opacity=".05"/>
        <path fill="#00AB6C" d="M299.53 48.96s-13.001 16.814-15.468 19.631c-4.5 5.12-3.81 5.727-3.81 12.07 1.935 7.66-1.44 16.849-10.125 27.564l-7.302-1.948-15.876-4.228s-7.348-18.269 3.247-32.44c2.87-3.837-6.314-13.834-6.314-13.834l-5.03-22.532 7.594-1.015 5.51 18.266 9.443 8.428 6.725.358s5.073 1.045 8.763-.661c3.528-1.638 15.99-15.692 15.99-15.692l5.085 4.612 1.568 1.422zM237.245 77.473v100.135a9.55 9.55 0 0 1-2.8 6.755 9.558 9.558 0 0 1-6.757 2.795H77.926a9.554 9.554 0 0 1-9.554-9.554V77.473a9.554 9.554 0 0 1 9.543-9.558h149.773a9.558 9.558 0 0 1 6.759 2.798 9.558 9.558 0 0 1 2.798 6.76z"/>
        <path fill="#00AB6C" d="M234.655 70.97H70.713l1.33-1.018c.06-.053.125-.103.192-.15l77.984-59.783 2.463-1.887L232.03 68.96l2.625 2.01z"/>
        <path fill="#00AB6C" d="M237.245 77.473l-1.994 1.44-14.523 10.52-70.51 51.07-67.81-52.223-14.036-10.807.181-1.856a9.48 9.48 0 0 1 2.375-4.647c.34-.37.71-.71 1.107-1.018a9.493 9.493 0 0 1 5.891-2.037h149.762a9.565 9.565 0 0 1 9.557 9.558z"/>
        <path fill="url(#a)" d="M72.035 69.944c-.395.31-.765.65-1.107 1.019h-.215l1.322-1.019z" opacity=".61"/>
        <path fill="url(#b)" d="M237.245 77.473l-1.994 1.445-14.523 10.514-70.51 51.071-67.81-52.22-14.036-10.81.181-1.853a9.577 9.577 0 0 1 3.482-5.676l.192-.146 77.992-59.78 2.463-1.886L232.03 68.96a9.542 9.542 0 0 1 5.17 7.594c.03.305.045.612.045.919z"/>
        <path fill="#FFF" d="M220.728 70.075v19.361l-26.022 18.831-5.968 4.335-38.52 27.901-36.228-27.9-5.615-4.32L82.4 88.299V70.075a5.676 5.676 0 0 1 5.676-5.676h126.98a5.68 5.68 0 0 1 5.672 5.676z"/>
        <path fill="url(#c)" d="M201.658 87.05H99.048a2.16 2.16 0 0 1-2.16-2.16 2.16 2.16 0 0 1 2.16-2.16h102.61a2.16 2.16 0 0 1 0 4.32z"/>
        <path fill="url(#d)" d="M201.658 99.828H99.048a2.16 2.16 0 0 1-2.16-2.16 2.16 2.16 0 0 1 2.16-2.16h102.61a2.16 2.16 0 0 1 2.16 2.16 2.16 2.16 0 0 1-2.16 2.16z"/>
        <path fill="url(#e)" d="M194.706 108.283l-5.968 4.32H113.99l-5.611-4.32z"/>
        <path fill="#000405" d="M150.219 140.503L87.63 187.166h126.468z" opacity=".05"/>
        <path fill="#00AB6C" d="M96.23 35.049c-3.15-6.76-14.987-5.65-14.987-5.65 7.302-4.307 5.903-15.249 5.814-15.894 3.194 9.538 14.22 7.432 15.208 7.225-7.322 1.806-6.034 14.319-6.034 14.319zM75.709 48.919c-2.002-4.297-9.531-3.59-9.531-3.59 4.765-2.832 3.685-10.122 3.685-10.122v.042c2.045 6.03 9.04 4.692 9.662 4.562-4.635 1.152-3.816 9.108-3.816 9.108z"/>
        <path fill="#DEBBBB" d="M270.553 52.39l-.182 2.555-.28 3.912c-.146 2.068-1.32 4.017-3.283 5.457-1.147.888-3.882 2.545-5.968 1.957-1.015-.285-1.05-1.253-.837-1.834a8.917 8.917 0 0 0 .776-3.278 8.808 8.808 0 0 0-.32-2.69c-1.304-2.471 10.094-6.08 10.094-6.08z"/>
        <path fill="#EFCFCF" d="M263.036 41.664a8.259 8.259 0 0 0-7.744 8.743c0 .196.031.385.058.584a27.932 27.932 0 0 0 2.544 9.693c2.69 4.611 9.508.818 10.588-1.08 1.08-1.899 7.63-10.204 5.89-12.629-1.741-2.425-6.932-5.487-11.336-5.31z"/>
        <path fill="#3F3D56" d="M260.615 36.98a14.312 14.312 0 0 1 8.816.257c2.794 1.06 5.204 3.244 6.268 6.038.915 2.589.827 5.427-.246 7.955a15.541 15.541 0 0 1-4.996 6.314c-.565-1.73 1.176-3.267 1.853-4.954.157-.311.192-.67.096-1.007-.246-.626-1.184-.695-1.718-.288s-.769 1.095-.965 1.737c.519-2.748.903-5.976-1.041-7.99-1.153-1.191-2.894-1.637-4.554-1.652a11.145 11.145 0 0 0-8.144 3.5c-.61.658-1.48 1.465-2.256 1.012a1.537 1.537 0 0 1-.545-.665c-2.295-4.543 3.731-9.243 7.432-10.257z"/>
        <path fill="url(#f)" d="M315.944 23.247c.327.253-2.732 2.636-2.732 2.636s-1.43 2.464-2.883 3.148c-1.452.684-12.367 18.504-12.367 18.504l-4.308-3.904 9.293-12.502s3.074-5.891 2.732-8.455c0 0 .185-3.028 1.11-1.622.654 1.003.235 2.583 1.008 2.752a.423.423 0 0 0 .246-.054 8.658 8.658 0 0 0 1.748-1.399c1.537-1.464 3.374-3.5 3.374-3.5s1.007-.427.88 0c-.126.426-1.975 3.304-2.079 3.458.173-.157 3.01-2.69 3.46-2.494.449.196-2.199 3.113-2.353 3.282.165-.115 3.19-2.221 3.417-2.033.426.357-2.306 2.729-2.533 2.91.173-.093 1.676-.973 1.987-.727z"/>
        <path fill="url(#g)" d="M312.7 25.072c-.229.075-.472.095-.71.058a19.627 19.627 0 0 0-2.33-.038c-.522.023-1.602.384-1.629-.427 0-.215.054-.427.042-.642a1.71 1.71 0 0 0-.038-.277 8.658 8.658 0 0 0 1.749-1.398c.235.078.458.19.66.334l1.515.98c.269.177.538.353.795.546a.696.696 0 0 1 .262.296.5.5 0 0 1-.316.568z"/>
        <path fill="url(#h)" d="M237.656 3.236c-.415.046.93 3.682.93 3.682s-.084 2.847.77 4.192c.852 1.345.768 21.964.768 21.964l5.718-.769-1.299-15.53s.496-6.625 2.137-8.62c0 0 1.437-2.67-.088-1.964-1.084.508-1.564 2.068-2.306 1.806a.384.384 0 0 1-.18-.176 8.416 8.416 0 0 1-.77-2.11c-.541-2.056-1.018-4.754-1.018-4.754s-.615-.884-.715-.457c-.1.426-.065 3.843-.061 4.039-.065-.22-1.153-3.878-1.633-3.943-.48-.066.226 3.804.272 4.027-.084-.184-1.537-3.566-1.837-3.528-.55.081.542 3.547.623 3.805-.108-.17-.919-1.703-1.31-1.664z"/>
        <path fill="url(#i)" d="M239.424 6.499c.16.184.362.328.588.419.689.36 1.356.76 1.999 1.199.434.296 1.153 1.18 1.61.495.123-.176.18-.384.304-.565.056-.076.116-.15.18-.219a8.416 8.416 0 0 1-.768-2.11 2.513 2.513 0 0 0-.738-.061l-1.803.035a7.425 7.425 0 0 0-.968.042c-.137-.001-.27.04-.384.115a.496.496 0 0 0-.02.65z"/>
        <path fill="url(#j)" d="M217.392 184.549c-1.537 3.14-2.656 5.58-2.656 5.58l-19.342.922s3.205-8.481 8.42-6.29c1.764.737 8.155-.65 8.155-.65l.2-.642 5.223 1.08z"/>
        <path fill="#3F3D56" d="M285.945 185.498l-2.963 1.66-25.365-26.663-2.797-35.595-23.128 20.98s.619 14.446-7.467 25.748c-1.449 2.026-4.397 7.91-6.626 12.506-.069.142-.138.288-.203.43l-.435-.088-1.51-.315-3.278-.677 10.63-42.965 24.154-38.454 15.876 4.227 7.301 1.949s4.927 9.872 0 35.425l-3.266 14.627s13.166 7.021 17.225 20.91l1.833 6.287.019.008z"/>
        <path fill="#434C65" d="M285.945 185.498l3.009 3.148-7.64 7.962h-9.992s2.129-3.516 6.387-4.073c4.258-.557 5.277-5.38 5.277-5.38l2.959-1.657z"/>
        <path fill="#FFF" d="M82.938 28.846l-1.687.554c7.301-4.308 5.903-15.25 5.814-15.895.115.518 1.814 7.74.888 10.11-1.157 2.964-5.015 5.231-5.015 5.231zM70.87 42.059c-.891 1.233-4.435 3.136-4.677 3.263 4.766-2.833 3.686-10.123 3.686-10.123v.042c.188.5 1.86 5.611.991 6.818zM68.657 82.73l78.272 60.225 3.29-2.452-81.847-63.03zM152.809 142.567l84.436-60.775v-4.146l-87.026 63.026zM237.2 76.723l-.231.646-1.718 1.718c1.206-2.083-2.202-6.918-2.202-6.918l-1.36-1.018-4.086-3.075-77.384-57.884 2.463-1.887 79.348 60.824a9.554 9.554 0 0 1 5.17 7.594z" opacity=".22"/>
        <path fill="#25233A" d="M285.926 185.49c-.135-.384-4.474-12.436-10.988-17.49-6.614-5.134-10.457-12.22-10.457-12.22-1.537-13.605-1.664-49.503-1.664-49.503l7.302 1.948s4.927 9.873 0 35.426l-3.267 14.627s13.167 7.036 17.225 20.925l1.849 6.287zM231.692 145.872s.619 14.446-7.467 25.749c-1.449 2.025-4.397 7.909-6.626 12.505l-.638.342-1.51-.315 12.536-39.541s15.184-17.99 17.97-19.712c2.787-1.721 8.87 0 8.87 0l-23.135 20.972z"/>
    </g>
</svg>
